<?xml version="1.0"?>
 <svg xmlns:dc="http://purl.org/dc/elements/1.1/" xmlns:cc="http://creativecommons.org/ns#" xmlns:rdf="http://www.w3.org/1999/02/22-rdf-syntax-ns#" xmlns:svg="http://www.w3.org/2000/svg" xmlns="http://www.w3.org/2000/svg" xmlns:sodipodi="http://sodipodi.sourceforge.net/DTD/sodipodi-0.dtd" xmlns:inkscape="http://www.inkscape.org/namespaces/inkscape" width="1627" height="248" fill="none" viewBox="0 0 1627 248" version="1.1" id="svg835" sodipodi:docname="jetstack-logo.svg" inkscape:version="1.0.2 (e86c8708, 2021-01-15)"> <metadata id="metadata841"> <rdf:rdf> <cc:work rdf:about=""> <dc:format>image/svg+xml</dc:format> <dc:type rdf:resource="http://purl.org/dc/dcmitype/StillImage"></dc:type> </cc:work> </rdf:rdf> </metadata> <defs id="defs839"></defs> <sodipodi:namedview pagecolor="#ffffff" bordercolor="#666666" borderopacity="1" objecttolerance="10" gridtolerance="10" guidetolerance="10" inkscape:pageopacity="0" inkscape:pageshadow="2" inkscape:window-width="1355" inkscape:window-height="693" id="namedview837" showgrid="false" inkscape:zoom="0.4105716" inkscape:cx="813.5" inkscape:cy="124" inkscape:window-x="0" inkscape:window-y="38" inkscape:window-maximized="0" inkscape:current-layer="svg835"></sodipodi:namedview> <path d="M223.1 6.4 60.6 168.9c-5.2 5.2-5.2 13.7 0 18.8 5.2 5.2 13.7 5.2 18.8 0L242 25.2c5.2-5.2 5.2-13.7 0-18.8-5.2-5.2-13.7-5.2-18.9 0Zm-10.3 87.8-78.1 78.1c-5.2 5.2-5.2 13.7 0 18.8 5.2 5.1 13.7 5.2 18.8 0l78.1-78.1c5.2-5.2 5.2-13.7 0-18.8-5.2-5.1-13.6-5.2-18.8 0ZM66.7 117.5c3.6 0 7-1.5 9.4-3.9l78.1-78.1c5.2-5.2 5.2-13.7 0-18.8-5.2-5.1-13.7-5.2-18.8 0L57.3 94.8c-5.2 5.2-5.2 13.7 0 18.8 2.4 2.7 5.8 3.9 9.4 3.9Zm127.6 72.6-34.6 34.6c-5.2 5.2-5.2 13.7 0 18.8 5.2 5.1 13.7 5.2 18.8 0l34.3-34.3c5.2-5.2 5.2-13.7 0-18.8-4.9-5.4-13.4-5.4-18.5-.3ZM58.2 35.2C53 30 44.5 30 39.4 35.2L4.8 69.8C-.4 75-.4 83.5 4.8 88.6c5.2 5.1 13.7 5.2 18.8 0l34.3-34.3c5.5-5.4 5.5-13.9.3-19.1Zm700.7 63.5c-21.6-5.5-26.7-8.2-26.7-16.4V82c0-6.1 5.5-10.9 16.1-10.9 10.6 0 21.3 4.6 32.5 12.1l14.3-20.7c-13.1-10.6-29.5-16.1-46.2-15.8-25.5 0-43.7 14.9-43.7 37.7v.3c0 24.6 16.1 31.6 41.3 38 21 5.5 25.2 8.8 25.2 15.8v.3c0 7.3-6.7 11.8-17.9 11.8-14.3 0-26.1-5.8-37.1-15.2l-16.1 19.4c14.6 12.8 33.4 20 52.8 20 26.7 0 45.9-14 45.9-38.6v-.3c-.9-21.7-15.2-30.8-40.4-37.2ZM382 128.8c0 14.3-6.4 20.7-16.7 20.7-8.8 0-15.8-4.6-22.8-12.5l-17.3 19.1c10 12.1 24.9 19.1 40.7 18.8 26.4 0 44-14.6 44-45V48.5h-28.2v80.2h.3v.1Zm97.5-6.1h58.6V98.1h-58.6V72.9H546V48.6h-93.9v124.5h94.8v-24.3h-67.4v-26.1Zm100.2-48.9h37.7v99.3H645V73.8h38V48.6H579.7v25.2Zm341.7-25.2H818.1v25.2h38v99.3h27.3V73.8h38V48.6ZM1134.6 150c-21.3 0-36.1-17.9-36.1-39.2v-.3c0-21.3 15.2-38.9 36.1-38.9 12.5 0 22.2 5.5 31.9 14l17.3-20c-11.5-11.2-25.5-19.1-49.2-19.1-38.3 0-65 28.9-65 64.4v.3c0 35.8 27.3 64.1 63.8 64.1 24 0 38.3-8.5 51-22.2l-17.3-17.6c-9.7 8.8-18.2 14.5-32.5 14.5Zm179.8-101.4h-30.3l-44.7 62.3 44.7 62.2h30.3l-44.3-62.2 44.3-62.3Zm-104.2 0h27.3v124.5h-27.3V48.6Zm-235.9.6-52.8 123.9h27.6l10.6-25.8h53.5l10.6 25.8h28.2L999.2 49.2h-24.9Zm-5.5 75.6 17.6-43.4 17.6 43.4h-35.2ZM1379 51.3c-2.1 0-3.9-.5-5.4-1.6-1.5-1-2.6-2.4-3.1-4.2h.5v5.4h-4.7V16.3h4.7v16.2h-.6c.5-1.8 1.6-3.1 3.1-4.2 1.5-1 3.3-1.5 5.4-1.5 2.1 0 3.9.5 5.5 1.5s2.8 2.4 3.6 4.2c.9 1.8 1.3 4 1.3 6.6 0 2.5-.4 4.7-1.3 6.6-.9 1.8-2.1 3.2-3.7 4.2-1.4.9-3.2 1.4-5.3 1.4Zm-1.2-3.8c2 0 3.7-.7 4.9-2.1 1.3-1.4 1.9-3.5 1.9-6.4 0-2.9-.6-5-1.9-6.4-1.3-1.4-2.9-2.1-4.9-2.1-2.1 0-3.7.7-5 2.1-1.2 1.4-1.9 3.5-1.9 6.4 0 2.8.6 5 1.9 6.4 1.3 1.4 3 2.1 5 2.1Zm16.5 14-1.1-3.9c1.5-.3 2.7-.7 3.7-1.1 1-.4 1.8-1 2.5-1.7s1.2-1.6 1.7-2.7l1.2-2.8-.1 1.9-10.3-24.1h5.1l8 19.7h-1.3l8-19.7h4.9l-10.9 25.4c-.7 1.6-1.4 2.9-2.2 3.9-.8 1.1-1.6 1.9-2.5 2.6-.9.7-1.9 1.2-3 1.6-1.1.4-2.4.7-3.7.9ZM1445.5 50.8 1424 2.6h9.5l17.3 40.5h-2.9l17.3-40.5h9.2l-21.5 48.2h-7.4Zm44.3.7c-5.8 0-10.3-1.6-13.6-4.8-3.3-3.2-4.9-7.6-4.9-13.1 0-3.6.7-6.7 2.1-9.4 1.4-2.7 3.4-4.8 5.9-6.3 2.5-1.5 5.5-2.3 8.9-2.3 3.3 0 6.1.7 8.3 2.1 2.2 1.4 3.9 3.4 5.1 5.9 1.2 2.6 1.7 5.5 1.7 9v2.3h-25.2v-4.5h19.1l-1.2 1c0-3.2-.7-5.6-2-7.3-1.3-1.7-3.3-2.5-5.8-2.5-2.8 0-5 1-6.5 3s-2.3 4.8-2.3 8.4v.9c0 3.7.9 6.5 2.8 8.4 1.8 1.8 4.5 2.8 7.8 2.8 2 0 3.8-.3 5.5-.8 1.7-.5 3.3-1.4 4.9-2.6l2.5 5.7c-1.6 1.3-3.6 2.3-5.9 3.1-2.2.7-4.6 1-7.2 1Zm20.8-.7V24.9c0-1.4 0-2.8-.1-4.3s-.2-2.9-.4-4.3h8.3l.7 6.8h-.8c1.1-2.4 2.7-4.3 4.9-5.6 2.1-1.3 4.6-1.9 7.5-1.9 4.1 0 7.1 1.1 9.2 3.4 2.1 2.3 3.1 5.8 3.1 10.7v21.1h-8.5V30.1c0-2.8-.5-4.8-1.6-6-1.1-1.2-2.7-1.8-4.8-1.8-2.6 0-4.7.8-6.3 2.5-1.6 1.6-2.3 3.8-2.3 6.6v19.5h-8.9v-.1Zm53.2.7c-3 0-5.7-.7-7.9-2.2-2.3-1.4-4.1-3.5-5.3-6.2-1.3-2.7-1.9-5.9-1.9-9.6 0-3.7.6-6.9 1.9-9.6 1.3-2.7 3.1-4.7 5.3-6.2 2.3-1.4 4.9-2.2 7.9-2.2 2.9 0 5.5.7 7.7 2.2 2.2 1.4 3.7 3.4 4.4 5.8h-.8l.8-7.2h8.2c-.1 1.4-.3 2.8-.4 4.3-.1 1.5-.2 2.9-.2 4.3v25.9h-8.5l-.1-7.1h.8c-.7 2.4-2.2 4.3-4.4 5.7-2.1 1.4-4.6 2.1-7.5 2.1Zm2.4-6.5c2.7 0 4.9-.9 6.5-2.8 1.6-1.9 2.5-4.8 2.5-8.6s-.8-6.7-2.5-8.5c-1.6-1.9-3.8-2.8-6.5-2.8s-4.9.9-6.5 2.8c-1.6 1.9-2.5 4.7-2.5 8.5s.8 6.7 2.4 8.6c1.7 1.8 3.9 2.8 6.6 2.8Zm29 5.8V22.7h-6.6v-6.4h9l-2.4 2.2v-5.3c0-4.3 1.1-7.5 3.2-9.7 2.2-2.2 5.3-3.3 9.5-3.3 1 0 2.1.1 3.2.2s2.1.4 2.9.8v6.7c-.6-.2-1.3-.4-2.1-.5-.8-.1-1.6-.2-2.4-.2-1.8 0-3.2.5-4.2 1.5s-1.6 2.7-1.6 5v4.2l-1.2-1.5h24v34.5h-8.5V22.8h-14.2v28.1h-8.6v-.1Zm22.2-41V1.5h9.5v8.3h-9.5Z" fill="#000" id="path833" style="fill:#ffffff"></path> </svg> 