<?xml version="1.0"?>
 <svg xmlns:dc="http://purl.org/dc/elements/1.1/" xmlns:cc="http://creativecommons.org/ns#" xmlns:rdf="http://www.w3.org/1999/02/22-rdf-syntax-ns#" xmlns:svg="http://www.w3.org/2000/svg" xmlns="http://www.w3.org/2000/svg" xmlns:sodipodi="http://sodipodi.sourceforge.net/DTD/sodipodi-0.dtd" xmlns:inkscape="http://www.inkscape.org/namespaces/inkscape" id="logo-OS" class="logo-OS" viewBox="0 0 270 40" version="1.1" sodipodi:docname="onestock-logo.svg" inkscape:version="1.0.2 (e86c8708, 2021-01-15)" width="270" height="40"> <metadata id="metadata862"> <rdf:rdf> <cc:work rdf:about=""> <dc:format>image/svg+xml</dc:format> <dc:type rdf:resource="http://purl.org/dc/dcmitype/StillImage"></dc:type> </cc:work> </rdf:rdf> </metadata> <defs id="defs860"></defs> <sodipodi:namedview pagecolor="#ffffff" bordercolor="#666666" borderopacity="1" objecttolerance="10" gridtolerance="10" guidetolerance="10" inkscape:pageopacity="0" inkscape:pageshadow="2" inkscape:window-width="1306" inkscape:window-height="804" id="namedview858" showgrid="false" inkscape:zoom="2.4740741" inkscape:cx="135" inkscape:cy="20" inkscape:window-x="0" inkscape:window-y="38" inkscape:window-maximized="0" inkscape:current-layer="logo-OS"></sodipodi:namedview> <g id="g849" style="fill:#ffffff"> <path class="logo-OS__item logo-OS__primary" d="M91.4,35.3c-2.2,0-4.3-0.4-6.1-1.2c-1.8-0.8-3.4-1.8-4.7-3.2c-1.3-1.3-2.3-2.9-3.1-4.7c-0.7-1.8-1.1-3.7-1.1-5.7v-0.1 c0-2,0.4-3.9,1.1-5.7c0.7-1.8,1.8-3.4,3.1-4.7c1.3-1.4,2.9-2.4,4.8-3.2c1.8-0.8,3.9-1.2,6.1-1.2c2.2,0,4.3,0.4,6.1,1.2 c1.8,0.8,3.4,1.8,4.7,3.2c1.3,1.3,2.3,2.9,3.1,4.7c0.7,1.8,1.1,3.7,1.1,5.7v0.1c0,2-0.4,3.9-1.1,5.7c-0.7,1.8-1.8,3.4-3.1,4.7 c-1.3,1.4-2.9,2.4-4.8,3.2C95.7,34.9,93.6,35.3,91.4,35.3z M91.5,30.6c1.4,0,2.7-0.3,3.9-0.8c1.2-0.5,2.2-1.3,3.1-2.2 c0.8-0.9,1.5-2,2-3.2c0.5-1.2,0.7-2.5,0.7-3.9v-0.1c0-1.4-0.2-2.7-0.7-4c-0.5-1.2-1.1-2.3-2-3.2c-0.9-0.9-1.9-1.7-3.1-2.2 c-1.2-0.5-2.5-0.8-3.9-0.8c-1.4,0-2.7,0.3-3.9,0.8c-1.2,0.5-2.2,1.3-3.1,2.2c-0.8,0.9-1.5,2-2,3.2c-0.5,1.2-0.7,2.5-0.7,3.9v0.1 c0,1.4,0.2,2.7,0.7,4c0.5,1.2,1.1,2.3,2,3.2c0.9,0.9,1.9,1.7,3.1,2.2C88.8,30.3,90.1,30.6,91.5,30.6z" id="path833" style="fill:#ffffff"></path> <path class="logo-OS__item logo-OS__primary" d="M111,13h5v3.4c0.4-0.5,0.7-1,1.2-1.5c0.4-0.5,0.9-0.9,1.5-1.2c0.6-0.4,1.2-0.6,1.8-0.9c0.7-0.2,1.4-0.3,2.3-0.3 c2.5,0,4.4,0.8,5.7,2.3c1.3,1.5,2,3.5,2,6.1v13.8h-5V22.5c0-1.7-0.4-3-1.2-3.9c-0.8-0.9-1.9-1.4-3.4-1.4c-1.4,0-2.6,0.5-3.5,1.4 c-0.9,0.9-1.3,2.3-1.3,4v12.2h-5V13z" id="path835" style="fill:#ffffff"></path> <path class="logo-OS__item logo-OS__primary" d="M145.5,35.3c-1.6,0-3-0.3-4.4-0.8c-1.4-0.5-2.5-1.3-3.5-2.3c-1-1-1.8-2.2-2.4-3.6s-0.9-2.9-0.9-4.6v-0.1 c0-1.6,0.3-3,0.8-4.4c0.5-1.4,1.3-2.6,2.2-3.6c0.9-1,2.1-1.8,3.4-2.4c1.3-0.6,2.7-0.9,4.3-0.9c1.7,0,3.2,0.3,4.5,0.9 c1.3,0.6,2.4,1.5,3.2,2.5s1.5,2.3,2,3.7c0.4,1.4,0.7,2.9,0.7,4.5c0,0.2,0,0.4,0,0.7c0,0.2,0,0.5-0.1,0.7h-16 c0.3,1.8,1,3.1,2.1,4.1c1.1,0.9,2.5,1.4,4.1,1.4c1.2,0,2.3-0.2,3.2-0.7c0.9-0.4,1.8-1.1,2.7-1.9l2.9,2.6c-1,1.2-2.3,2.2-3.7,3 C149.2,34.9,147.5,35.3,145.5,35.3z M150.4,22.4c-0.1-0.8-0.3-1.5-0.5-2.2c-0.3-0.7-0.6-1.3-1.1-1.8c-0.5-0.5-1-0.9-1.7-1.2 c-0.6-0.3-1.4-0.5-2.2-0.5c-1.5,0-2.8,0.5-3.8,1.6c-1,1.1-1.6,2.4-1.8,4.1H150.4z" id="path837" style="fill:#ffffff"></path> <path class="logo-OS__item logo-OS__secondary" d="M170.2,35.2c-2.3,0-4.4-0.4-6.3-1.1s-3.7-1.9-5.4-3.5l2-2.4c1.5,1.4,3,2.4,4.6,3.1c1.5,0.7,3.3,1,5.3,1 c1.9,0,3.5-0.5,4.7-1.4c1.2-0.9,1.7-2.1,1.7-3.5v-0.1c0-0.7-0.1-1.3-0.3-1.8c-0.2-0.5-0.6-1-1.2-1.5c-0.5-0.4-1.3-0.8-2.3-1.2 c-1-0.4-2.2-0.7-3.7-1c-1.6-0.4-3.1-0.8-4.3-1.2c-1.2-0.5-2.2-1-3-1.7c-0.8-0.7-1.4-1.4-1.8-2.3c-0.4-0.9-0.6-1.9-0.6-3.1v-0.1 c0-1.1,0.2-2.2,0.7-3.1c0.5-1,1.1-1.8,2-2.5c0.8-0.7,1.9-1.2,3-1.6c1.2-0.4,2.4-0.6,3.8-0.6c2.1,0,4,0.3,5.5,0.9 c1.6,0.6,3.1,1.5,4.6,2.7l-1.9,2.5c-1.3-1.1-2.7-1.9-4.1-2.4c-1.4-0.5-2.8-0.7-4.3-0.7c-1.9,0-3.4,0.4-4.5,1.3 c-1.1,0.9-1.6,2-1.6,3.3v0.1c0,0.7,0.1,1.3,0.3,1.8c0.2,0.5,0.6,1,1.2,1.5s1.4,0.9,2.4,1.2c1,0.4,2.3,0.7,3.9,1 c3.2,0.7,5.6,1.7,7.1,3c1.5,1.3,2.3,3,2.3,5.2V27c0,1.2-0.2,2.4-0.7,3.4c-0.5,1-1.2,1.9-2,2.6c-0.9,0.7-1.9,1.3-3.1,1.6 C172.9,35,171.6,35.2,170.2,35.2z" id="path839" style="fill:#ffffff"></path> <path class="logo-OS__item logo-OS__secondary" d="M192.1,35.1c-0.9,0-1.6-0.1-2.4-0.3c-0.7-0.2-1.4-0.6-1.9-1c-0.5-0.5-1-1.1-1.3-1.9c-0.3-0.8-0.5-1.7-0.5-2.8V16.3h-3 v-2.8h3V7.1h3.2v6.4h6.7v2.8h-6.7v12.4c0,1.3,0.3,2.2,1,2.7c0.7,0.5,1.5,0.8,2.6,0.8c0.5,0,1.1-0.1,1.5-0.2c0.5-0.1,1-0.3,1.5-0.5 v2.7c-0.5,0.3-1.1,0.5-1.7,0.7C193.6,35.1,192.9,35.1,192.1,35.1z" id="path841" style="fill:#ffffff"></path> <path class="logo-OS__item logo-OS__secondary" d="M210.3,35.3c-1.6,0-3.1-0.3-4.4-0.9c-1.3-0.6-2.5-1.4-3.5-2.4c-1-1-1.8-2.2-2.3-3.5c-0.5-1.3-0.8-2.7-0.8-4.3v-0.1 c0-1.5,0.3-2.9,0.8-4.3c0.5-1.3,1.3-2.5,2.3-3.5c1-1,2.2-1.8,3.5-2.4c1.4-0.6,2.8-0.9,4.5-0.9c1.6,0,3.1,0.3,4.4,0.9 c1.4,0.6,2.5,1.4,3.5,2.4c1,1,1.8,2.2,2.3,3.5c0.5,1.3,0.8,2.7,0.8,4.3v0.1c0,1.5-0.3,2.9-0.8,4.3c-0.6,1.3-1.3,2.5-2.3,3.5 c-1,1-2.2,1.8-3.5,2.4C213.4,35,211.9,35.3,210.3,35.3z M210.4,32.4c1.2,0,2.2-0.2,3.2-0.7c1-0.4,1.8-1,2.5-1.8 c0.7-0.7,1.2-1.6,1.6-2.6c0.4-1,0.6-2,0.6-3.2v-0.1c0-1.2-0.2-2.2-0.6-3.2c-0.4-1-1-1.9-1.7-2.6c-0.7-0.8-1.5-1.4-2.5-1.8 c-1-0.4-2-0.7-3.1-0.7c-1.2,0-2.2,0.2-3.2,0.7c-1,0.4-1.8,1-2.4,1.8c-0.7,0.7-1.2,1.6-1.6,2.6c-0.4,1-0.6,2.1-0.6,3.2v0.1 c0,1.2,0.2,2.2,0.6,3.2c0.4,1,0.9,1.9,1.6,2.6c0.7,0.7,1.5,1.3,2.5,1.8C208.2,32.2,209.3,32.4,210.4,32.4z" id="path843" style="fill:#ffffff"></path> <path class="logo-OS__item logo-OS__secondary" d="M235.7,35.3c-1.6,0-3-0.3-4.3-0.9c-1.3-0.6-2.5-1.4-3.5-2.4c-1-1-1.7-2.2-2.3-3.5c-0.5-1.3-0.8-2.8-0.8-4.2v-0.1 c0-1.5,0.3-2.9,0.8-4.3c0.5-1.3,1.3-2.5,2.3-3.5s2.1-1.8,3.5-2.4c1.3-0.6,2.8-0.9,4.3-0.9c1,0,1.9,0.1,2.8,0.3 c0.8,0.2,1.6,0.5,2.3,0.8c0.7,0.3,1.3,0.7,1.9,1.2c0.6,0.5,1.1,1,1.6,1.5l-2.1,2.2c-0.9-0.9-1.8-1.6-2.8-2.3 c-1-0.6-2.2-0.9-3.7-0.9c-1.1,0-2.1,0.2-3,0.6c-0.9,0.4-1.7,1-2.4,1.7c-0.7,0.7-1.2,1.6-1.6,2.6c-0.4,1-0.6,2.1-0.6,3.2v0.1 c0,1.2,0.2,2.2,0.6,3.2c0.4,1,0.9,1.9,1.6,2.6c0.7,0.8,1.5,1.3,2.5,1.8c0.9,0.4,2,0.6,3.1,0.6c1.4,0,2.6-0.3,3.6-0.9 c1.1-0.6,2-1.4,2.9-2.3l2,1.9c-1.1,1.2-2.3,2.2-3.6,3C239.4,34.9,237.7,35.3,235.7,35.3z" id="path845" style="fill:#ffffff"></path> <path class="logo-OS__item logo-OS__secondary" d="M248.6,4.7h3.2v20.7l11.5-12h3.9l-8.9,9.1l9.2,12.1h-3.8l-7.6-9.9l-4.3,4.4v5.6h-3.2V4.7z" id="path847" style="fill:#ffffff"></path> </g> <g id="g855" style="fill:#ffffff"> <path class="logo-OS__item logo-OS__primary" d="M37,20c0,8.4-6.9,15.3-15.3,15.3c-8.4,0-15.3-6.9-15.3-15.3c0-8.4,6.9-15.3,15.3-15.3c1.2,0,2.4,0.1,3.6,0.4 c1.6-0.9,3.4-1.6,5.2-2.2c-2.6-1.3-5.6-2.1-8.7-2.1C11.1,0.8,2.5,9.4,2.5,20c0,10.6,8.6,19.2,19.2,19.2c12.1,0,27.8-5.1,29.1-19.2 L44,13.4L37,20z" id="path851" style="fill:#ffffff"></path> <path class="logo-OS__item logo-OS__secondary" d="M28.5,20c0-8.4,6.9-15.3,15.3-15.3S59.1,11.6,59.1,20c0,8.4-6.9,15.3-15.3,15.3c-1.2,0-2.4-0.1-3.6-0.4 c-1.6,0.9-3.4,1.6-5.2,2.2c2.6,1.3,5.6,2.1,8.7,2.1C54.4,39.2,63,30.6,63,20C63,9.4,54.4,0.8,43.8,0.8C31.7,0.8,16,5.9,14.7,20 l6.8,6.6L28.5,20z" id="path853" style="fill:#ffffff"></path> </g> </svg> 